<svg width="41" height="41" viewBox="0 0 41 41" fill="none" xmlns="http://www.w3.org/2000/svg">
<path d="M23.8565 17.0465H25.5009C25.7131 17.0465 25.9164 16.9611 26.0649 16.8095C26.2134 16.6579 26.2947 16.4529 26.2902 16.2407V13.6097C26.2917 13.1982 25.9767 12.8546 25.5667 12.8203C25.5667 12.8203 24.3992 12.7217 22.9685 12.7217C19.4495 12.7217 17.5091 14.8101 17.5091 18.5922V21.5028H14.2696C14.0589 21.4983 13.8555 21.58 13.7065 21.729C13.5575 21.878 13.4757 22.0814 13.4803 22.2921V24.693C13.4757 24.9037 13.5575 25.1071 13.7065 25.2561C13.8555 25.4051 14.0589 25.4868 14.2696 25.4823H17.4598V34.7897H22.2614V25.4823H25.1556C25.553 25.4783 25.8881 25.185 25.9449 24.7916L26.2409 22.3908C26.271 22.1636 26.1988 21.9347 26.0436 21.7659C25.893 21.5976 25.6775 21.5018 25.4516 21.5028H22.2614V18.6909C22.261 17.8016 22.9676 17.0732 23.8565 17.0465Z" fill="black"/>
<path fill-rule="evenodd" clip-rule="evenodd" d="M4.0249 20.3352C4.0249 11.3351 11.3209 4.03906 20.321 4.03906C24.643 4.03906 28.788 5.75597 31.8441 8.81208C34.9002 11.8682 36.6171 16.0132 36.6171 20.3352C36.6171 29.3352 29.3211 36.6313 20.321 36.6313C11.3209 36.6313 4.0249 29.3352 4.0249 20.3352ZM34.1505 20.3352C34.1505 12.6973 27.9588 6.50568 20.321 6.50568C12.6907 6.52376 6.50959 12.7048 6.49151 20.3352C6.49151 27.973 12.6832 34.1646 20.321 34.1646C27.9588 34.1646 34.1505 27.973 34.1505 20.3352Z" fill="black"/>
</svg>
