<svg width="40" height="41" viewBox="0 0 40 41" fill="none" xmlns="http://www.w3.org/2000/svg">
<path fill-rule="evenodd" clip-rule="evenodd" d="M13.2454 4.03906H25.9073C31.3564 4.03906 35.7738 8.45642 35.7738 13.9055V26.5675C35.7738 32.0166 31.3564 36.4339 25.9073 36.4339H13.2454C7.79627 36.4339 3.37891 32.0166 3.37891 26.5675V13.9055C3.37891 8.45642 7.79627 4.03906 13.2454 4.03906ZM33.3072 13.9055C33.2981 9.82245 29.9904 6.51472 25.9073 6.50568H13.2454C9.16229 6.51472 5.85456 9.82245 5.84552 13.9055V26.5675C5.85456 30.6505 9.16229 33.9583 13.2454 33.9673H25.9073C29.9904 33.9583 33.2981 30.6505 33.3072 26.5675V13.9055Z" fill="black"/>
<path fill-rule="evenodd" clip-rule="evenodd" d="M12.5054 20.2365C12.5144 16.3351 15.6749 13.1746 19.5763 13.1655C23.4778 13.1746 26.6382 16.3351 26.6473 20.2365C26.6473 24.1417 23.4815 27.3074 19.5763 27.3074C15.6711 27.3074 12.5054 24.1417 12.5054 20.2365ZM24.1807 20.2365C24.1807 17.6936 22.1192 15.6321 19.5763 15.6321C17.0372 15.6412 14.981 17.6973 14.972 20.2365C14.972 22.7794 17.0334 24.8408 19.5763 24.8408C22.1192 24.8408 24.1807 22.7794 24.1807 20.2365Z" fill="black"/>
<path d="M25.5948 11.4473C25.5948 10.4619 26.3937 9.66309 27.379 9.66309C28.3644 9.66309 29.1632 10.4619 29.1632 11.4473C29.1632 12.4326 28.3644 13.2315 27.379 13.2315C26.3937 13.2315 25.5948 12.4326 25.5948 11.4473Z" fill="black"/>
</svg>
