<svg width="40" height="41" viewBox="0 0 40 41" fill="none" xmlns="http://www.w3.org/2000/svg">
<mask id="mask0_14_27" style="mask-type:alpha" maskUnits="userSpaceOnUse" x="16" y="14" width="19" height="20">
<path fill-rule="evenodd" clip-rule="evenodd" d="M16.9535 14.0132H34.9658V33.638H16.9535V14.0132Z" fill="white"/>
</mask>
<g mask="url(#mask0_14_27)">
<path fill-rule="evenodd" clip-rule="evenodd" d="M34.9567 32.8009C34.9606 29.6581 34.9766 26.5152 34.9511 23.3727C34.9398 21.9961 34.8904 20.616 34.6011 19.2612C34.1269 17.04 33.0597 15.3058 30.9398 14.4971C29.5255 13.9577 28.0469 13.9229 26.57 14.1321C25.3293 14.3077 24.1864 14.7803 23.1453 15.6587C23.1453 15.3391 23.1442 15.1272 23.1455 14.9155C23.1487 14.4401 22.9275 14.2252 22.4717 14.2274C20.8521 14.2349 19.2324 14.233 17.6126 14.2287C17.1668 14.2274 16.9529 14.4115 16.9535 14.9127C16.962 20.9434 16.9589 26.9741 16.9591 33.0048C16.9591 33.2361 16.9287 33.4821 17.1963 33.596C17.2246 33.6333 23.072 33.6473 23.0718 33.6092C23.4553 33.437 23.3374 33.0733 23.338 32.7773C23.3434 29.8029 23.3255 26.8284 23.3415 23.854C23.3464 22.9238 23.3808 21.9842 23.7825 21.1181C24.2586 20.0919 25.2438 19.6473 26.6314 19.8292C27.5861 19.9543 28.1955 20.6007 28.3852 21.7269C28.4555 22.143 28.508 22.5684 28.5105 22.9898C28.529 26.2616 28.5316 29.5335 28.5452 32.8053C28.5465 33.1074 28.4558 33.4642 28.845 33.616C28.8316 33.6589 34.7195 33.6329 34.721 33.5914C35.0378 33.4066 34.9563 33.0845 34.9567 32.8009" fill="black"/>
</g>
<path fill-rule="evenodd" clip-rule="evenodd" d="M12.8731 13.9053C11.1633 13.9197 9.45321 13.9165 7.74333 13.907C7.26021 13.9042 7.02085 14.071 7.02173 14.6208C7.03243 20.7523 7.02828 26.8837 7.02954 33.015C7.02966 33.2485 6.9939 33.5049 7.28136 33.6113C7.29232 33.6486 13.3201 33.6463 13.3363 33.6092C13.6536 33.4856 13.5897 33.1979 13.5898 32.9493C13.5926 26.8611 13.5877 20.7728 13.5994 14.6847C13.6002 14.1322 13.4111 13.9008 12.8731 13.9053" fill="black"/>
<path fill-rule="evenodd" clip-rule="evenodd" d="M10.3105 5.68311C8.49424 5.68311 7.02173 7.15562 7.02173 8.97187C7.02173 10.7883 8.49424 12.2607 10.3105 12.2607C12.1269 12.2607 13.5994 10.7883 13.5994 8.97187C13.5994 7.15562 12.1269 5.68311 10.3105 5.68311" fill="black"/>
</svg>
