<svg width="20" height="20" viewBox="0 0 20 20" fill="none" xmlns="http://www.w3.org/2000/svg">
<path d="M17.4582 11.0252C17.2382 11.0252 17.0082 10.9552 16.7882 10.9052C16.3427 10.807 15.9048 10.6767 15.4782 10.5152C15.0143 10.3464 14.5043 10.3552 14.0465 10.5398C13.5886 10.7244 13.2153 11.0718 12.9982 11.5152L12.7782 11.9652C11.8042 11.4233 10.9092 10.7504 10.1182 9.96517C9.33294 9.17418 8.65999 8.27916 8.11817 7.30517L8.53817 7.02517C8.98153 6.80808 9.32895 6.4347 9.51356 5.97686C9.69817 5.51902 9.70694 5.00908 9.53817 4.54517C9.37939 4.11759 9.2491 3.67997 9.14817 3.23517C9.09817 3.01517 9.05817 2.78517 9.02817 2.55517C8.90673 1.85079 8.53779 1.21291 7.98779 0.756406C7.43779 0.299904 6.74286 0.054776 6.02817 0.0651672H3.02817C2.5972 0.0611206 2.17042 0.149981 1.77688 0.325698C1.38334 0.501415 1.03228 0.759863 0.747598 1.08345C0.462918 1.40704 0.251302 1.78816 0.127155 2.20088C0.00300869 2.6136 -0.0307535 3.04823 0.0281672 3.47517C0.560905 7.66455 2.4742 11.557 5.46582 14.5378C8.45744 17.5186 12.3569 19.4177 16.5482 19.9352H16.9282C17.6656 19.9362 18.3776 19.6657 18.9282 19.1752C19.2445 18.8922 19.4973 18.5453 19.6696 18.1575C19.842 17.7696 19.9301 17.3496 19.9282 16.9252V13.9252C19.9159 13.2306 19.663 12.5617 19.2125 12.0328C18.762 11.5039 18.142 11.1478 17.4582 11.0252V11.0252ZM17.9582 17.0252C17.958 17.1672 17.9276 17.3075 17.8689 17.4368C17.8103 17.5661 17.7248 17.6815 17.6182 17.7752C17.5068 17.8722 17.3761 17.9446 17.2348 17.9877C17.0935 18.0307 16.9447 18.0435 16.7982 18.0252C13.0531 17.545 9.5744 15.8317 6.91088 13.1555C4.24736 10.4793 2.55058 6.9925 2.08817 3.24517C2.07225 3.09869 2.0862 2.9505 2.12917 2.80956C2.17214 2.66862 2.24324 2.53785 2.33817 2.42517C2.43188 2.3185 2.54723 2.23301 2.67655 2.17438C2.80586 2.11576 2.94618 2.08535 3.08817 2.08517H6.08817C6.32071 2.07999 6.54779 2.15605 6.73031 2.30024C6.91283 2.44443 7.03938 2.64774 7.08817 2.87517C7.12817 3.1485 7.17817 3.4185 7.23817 3.68517C7.35369 4.21231 7.50743 4.73035 7.69817 5.23517L6.29817 5.88517C6.17846 5.94009 6.07079 6.01811 5.98132 6.11476C5.89186 6.21141 5.82237 6.32478 5.77684 6.44836C5.73131 6.57194 5.71064 6.7033 5.71601 6.83489C5.72139 6.96648 5.75271 7.09571 5.80817 7.21517C7.24737 10.2979 9.72541 12.776 12.8082 14.2152C13.0516 14.3152 13.3247 14.3152 13.5682 14.2152C13.6929 14.1706 13.8075 14.1016 13.9053 14.0124C14.0032 13.9231 14.0823 13.8153 14.1382 13.6952L14.7582 12.2952C15.2751 12.48 15.8028 12.6337 16.3382 12.7552C16.6048 12.8152 16.8748 12.8652 17.1482 12.9052C17.3756 12.954 17.5789 13.0805 17.7231 13.263C17.8673 13.4455 17.9433 13.6726 17.9382 13.9052L17.9582 17.0252Z" fill="black"/>
</svg>
