<svg width="41" height="41" viewBox="0 0 41 41" fill="none" xmlns="http://www.w3.org/2000/svg">
<g clip-path="url(#clip0_14_28)">
<path d="M30.3859 5.68994C34.3868 5.68994 36.9718 8.17629 36.9718 13.0832C36.9718 15.9116 35.3306 19.5622 33.9592 21.6917C29.373 28.8169 23.7096 36.0638 18.1022 36.0638C12.008 36.0638 10.4228 24.8309 9.72884 22.1982C9.0349 19.5655 8.85237 18.564 7.80488 16.8818C7.2836 17.2436 6.55513 17.7517 5.61782 18.4111C5.24947 18.6693 4.74135 18.5838 4.47824 18.2187L2.31913 15.2324C2.09549 14.9249 2.11358 14.5023 2.36353 14.2129C7.01228 8.83241 10.875 6.14051 13.9533 6.14051C17.8868 6.14051 19.0905 10.7712 19.4193 13.0848C19.9127 16.5661 20.554 20.8761 21.465 22.7408C22.3809 21.4384 25.0498 17.9918 24.6995 16.1796C24.545 15.3804 22.5339 16.4806 21.5965 16.3079C20.8977 16.1763 20.2711 15.6468 20.2711 14.6207C20.2711 12.4666 23.3166 5.69159 30.3859 5.69159V5.68994ZM30.3974 8.97876C26.7879 8.97876 25.0514 11.4996 24.3904 12.6096C26.4459 12.6853 27.6299 13.9547 27.8979 15.5745C28.5376 19.406 24.7472 23.665 24.0516 24.7256C23.4005 25.7172 19.0181 30.1982 17.0629 19.2004C16.8787 18.1661 16.4594 15.6435 15.9694 12.3169C15.6898 10.4242 14.5338 9.41782 13.9467 9.41782C12.5622 9.41782 10.7895 10.4867 7.60755 13.5535C10.7402 13.3644 11.7926 17.2962 12.4027 19.5276C13.7445 24.4346 14.986 32.775 18.3554 32.775C21.1953 32.775 25.6549 28.4239 30.4747 21.1984C30.8184 20.687 33.7076 16.2257 33.7076 12.9171C33.7076 8.97876 31.292 8.97876 30.3974 8.97876V8.97876Z" fill="black"/>
</g>
<defs>
<clipPath id="clip0_14_28">
<rect width="39.4658" height="39.4658" fill="white" transform="translate(0.798096 0.75)"/>
</clipPath>
</defs>
</svg>
